name C:\Users\antoi\Documents\MyRepositories\upper-imu-dc\Results\main_tracking\Case_78\kinematics.mot
datacolumns 10
datarows 37
range 2.07000000 2.43000000
endheader 
time	clav_prot	clav_elev	scapula_abduction	scapula_elevation	scapula_upward_rot	scapula_winging	plane_elv	shoulder_elv	axial_rot	
          2.07000000	        -32.55432947	         -9.52149923	        -16.12557998	        -12.59631242	         31.46124958	          3.15052768	         80.89791847	         89.07253281	        -14.47077812	
          2.08000000	        -32.73469087	         -9.55264630	        -16.12925987	        -12.69785759	         31.86460015	          3.06674671	         80.73939943	         89.40635901	        -14.44991640	
          2.09000000	        -32.91405911	         -9.58661145	        -16.13108745	        -12.80028518	         32.26616901	          2.98539440	         80.57606677	         89.73521668	        -14.42931668	
          2.10000000	        -33.09228043	         -9.62315215	        -16.13083731	        -12.90342130	         32.66603113	          2.90637732	         80.40815676	         90.05937134	        -14.40961790	
          2.11000000	        -33.26926499	         -9.66198996	        -16.12832959	        -13.00708376	         33.06435166	          2.82954852	         80.23588349	         90.37904347	        -14.39130660	
          2.12000000	        -33.44494207	         -9.70283561	        -16.12343412	        -13.11107896	         33.46127019	          2.75475116	         80.05941939	         90.69447670	        -14.37459427	
          2.13000000	        -33.61929678	         -9.74539792	        -16.11605930	        -13.21522594	         33.85699716	          2.68180016	         79.87888871	         91.00585955	        -14.35948813	
          2.14000000	        -33.79237482	         -9.78934155	        -16.10617640	        -13.31932239	         34.25180001	          2.61045406	         79.69440531	         91.31334272	        -14.34582198	
          2.15000000	        -33.96427195	         -9.83428397	        -16.09379940	        -13.42314166	         34.64600677	          2.54041343	         79.50605459	         91.61703007	        -14.33327479	
          2.16000000	        -34.13512363	         -9.87980412	        -16.07898087	        -13.52643482	         35.03998491	          2.47133124	         79.31388703	         91.91698342	        -14.32140354	
          2.17000000	        -34.30509078	         -9.92545552	        -16.06180768	        -13.62893474	         35.43411154	          2.40282869	         79.11791516	         92.21323838	        -14.30970251	
          2.18000000	        -34.47434173	         -9.97078552	        -16.04238768	        -13.73036531	         35.82874655	          2.33451621	         78.91810380	         92.50581783	        -14.29765225	
          2.19000000	        -34.64304161	        -10.01534857	        -16.02084231	        -13.83044841	         36.22421622	          2.26600760	         78.71436945	         92.79473642	        -14.28474854	
          2.20000000	        -34.81134786	        -10.05871556	        -15.99730754	        -13.92890910	         36.62080047	          2.19692958	         78.50659165	         93.08000226	        -14.27052885	
          2.21000000	        -34.97940533	        -10.10048582	        -15.97193329	        -14.02548305	         37.01872080	          2.12693344	         78.29462637	         93.36161866	        -14.25459757	
          2.22000000	        -35.14734078	        -10.14029784	        -15.94487957	        -14.11992350	         37.41813194	          2.05570569	         78.07831982	         93.63958425	        -14.23664278	
          2.23000000	        -35.31525953	        -10.17783594	        -15.91631264	        -14.21200632	         37.81911941	          1.98297476	         77.85752312	         93.91388970	        -14.21644319	
          2.24000000	        -35.48324438	        -10.21283664	        -15.88640292	        -14.30153534	         38.22169950	          1.90851665	         77.63210506	         94.18451247	        -14.19387014	
          2.25000000	        -35.65135998	        -10.24509165	        -15.85532853	        -14.38834621	         38.62582480	          1.83215598	         77.40196455	         94.45140790	        -14.16887490	
          2.26000000	        -35.81965922	        -10.27444996	        -15.82328299	        -14.47230947	         39.03138821	          1.75376600	         77.16704055	         94.71450214	        -14.14147325	
          2.27000000	        -35.98819085	        -10.30081944	        -15.79048428	        -14.55333347	         39.43822799	          1.67326757	         76.92731778	         94.97368446	        -14.11172583	
          2.28000000	        -36.15700677	        -10.32416755	        -15.75718298	        -14.63136649	         39.84613323	          1.59062734	         76.68282862	         95.22879944	        -14.07972011	
          2.29000000	        -36.32616627	        -10.34452058	        -15.72366762	        -14.70639734	         40.25484672	          1.50585602	         76.43365272	         95.47964252	        -14.04555780	
          2.30000000	        -36.49573733	        -10.36195998	        -15.69026509	        -14.77845347	         40.66406834	          1.41900505	         76.17991519	         95.72595827	        -14.00934679	
          2.31000000	        -36.66579258	        -10.37661848	        -15.65733389	        -14.84759835	         41.07345661	          1.33016499	         75.92178269	         95.96744443	        -13.97120421	
          2.32000000	        -36.83640228	        -10.38867399	        -15.62525198	        -14.91392723	         41.48263135	          1.23946297	         75.65945974	         96.20376119	        -13.93126482	
          2.33000000	        -37.00762510	        -10.39834219	        -15.59439923	        -14.97756183	         41.89117905	          1.14705971	         75.39318430	         96.43454455	        -13.88969624	
          2.34000000	        -37.17949850	        -10.40586860	        -15.56513763	        -15.03864503	         42.29866036	          1.05314616	         75.12322357	         96.65942346	        -13.84671558	
          2.35000000	        -37.35203128	        -10.41151990	        -15.53779294	        -15.09733516	         42.70462076	          0.95793873	         74.84987057	         96.87803820	        -13.80260058	
          2.36000000	        -37.52519634	        -10.41557585	        -15.51263586	        -15.15380085	         43.10860167	          0.86167509	         74.57343717	         97.09005973	        -13.75769816	
          2.37000000	        -37.69893029	        -10.41832167	        -15.48987165	        -15.20821682	         43.51015520	          0.76460777	         74.29424884	         97.29520430	        -13.71242208	
          2.38000000	        -37.87313717	        -10.42004014	        -15.46963614	        -15.26075961	         43.90885904	          0.66699633	         74.01263983	         97.49324457	        -13.66724412	
          2.39000000	        -38.04769579	        -10.42100431	        -15.45199667	        -15.31160393	         44.30433215	          0.56909859	         73.72894794	         97.68401584	        -13.62267608	
          2.40000000	        -38.22246753	        -10.42147126	        -15.43695527	        -15.36091938	         44.69624831	          0.47116272	         73.44350927	         97.86741922	        -13.57924742	
          2.41000000	        -38.39730538	        -10.42167680	        -15.42445416	        -15.40886771	         45.08434867	          0.37341944	         73.15665471	         98.04342127	        -13.53748147	
          2.42000000	        -38.57206316	        -10.42183114	        -15.41438036	        -15.45560088	         45.46845576	          0.27607490	         72.86870701	         98.21204821	        -13.49786959	
          2.43000000	        -38.74660320	        -10.42211293	        -15.40657587	        -15.50125664	         45.84847704	          0.17930335	         72.57998515	         98.37338515	        -13.46085129	
